<?xml version="1.0" encoding="UTF-8"?>
<svg width="1612.4" height="1626.3" version="1.1" viewBox="0 0 1612.4 1626.3" xmlns="http://www.w3.org/2000/svg" xmlns:cc="http://creativecommons.org/ns#" xmlns:dc="http://purl.org/dc/elements/1.1/" xmlns:rdf="http://www.w3.org/1999/02/22-rdf-syntax-ns#">
 <metadata>
  <rdf:RDF>
   <cc:Work rdf:about="">
    <dc:format>image/svg+xml</dc:format>
    <dc:type rdf:resource="http://purl.org/dc/dcmitype/StillImage"/>
    <dc:title/>
   </cc:Work>
  </rdf:RDF>
 </metadata>
 <rect y="80.133" width="1612.4" height="1370.3" style="fill-opacity:0;paint-order:markers fill stroke;stroke-width:1648.2"/>
 <path d="m1134.2 708.75c4.3597 0.74978 0.5506-31.098 2.7841-48.802 0.7018-4.9011 35.626 0.20346 35.162-6.9442-0.4719-22.114-4.5051-41.61-6.866-63.409 11.192-28.343 13.568-54.008 1.808-75.379 3.3239-19.784 2.9438-36.448 0.085-51.753-2.3942-4.1838-2.976-26.594-6.7738-40.032 1.5946-3.4604 5.405-6.2036 4.7816-10.382-2.283-30.936-12.919-64.742-22.307-90.472-15.803-43.537-25.816-84.587-32.941-135.53-74.933-185.06-288.37-229.6-547.62-144.57-41.722 24.285-104.24 109.95-147.32 179.46-57.65 101.64-94.853 142.99-133.03 187.22-7.4899-11.537-20.697-13.675-37.557-9.8138-21.233-14.292-41.367-17.146-60.224-6.7237-8.9813 4.2563-9.095 5.2847-21.568-1.692-19.231-8.911-37.944-6.6792-55.072 4.1491-18.255 4.1264-20.213 14.948-23.17 25.362-3.0689 2.8116-8.346 4.2179-11.415 7.0295-2.5622 3.276-2.9179 7.955-5.4799 11.23-21.009 13.296-32.049 32.015-34.925 55.175-1.4586 7.7859-4.8055 14.402-8.537 20.781-29.985 48.634-31.197 74.65-7.548 81.122 20.317 0.5285 11.197 9.2663 18.934 17.42 6.3083 17.518 11.543 15.138 17.314 22.707 6.2005 16.626 13.883 23.606 22.609 23.814 8.1442 5.4903 15.44 10.457 23.448 13.545 10.945 23.542 22.756 23.721 33.591 22.95 7.4199 17.025 19.755 22.283 35.707 18.868 7.8011 5.323 15.452 5.9965 22.94 1.7142 9.2757 2.9214 19.595 4.0824 43.977-18.54 25.235 4.2455 44.506-3.6651 57.765-23.818 33.801-14.548 49.595-50.186 53.751-99.454 32.946-34.539 72.339-62.442 110.53-91.581 0.42365 23.197-9.0096 54.767-27.102 93.68-2.3279 8.3558-2.4754 7.2257 1.0234 11.841 6.3484 7.1775 12.698 14.355 19.046 21.534 3.8139 3.3016 3.1655 3.0086 2.7802 8.9527-0.36817 9.306-2.7786 23.552-1.1027 27.918 1.1174 1.7161 3.8794 2.3002 3.8905 3.4858 0.0861 1.8294-1.0955 5.5254 0.2612 5.4873 7.2033-0.40676 14.408-0.81298 21.611-1.2197-0.4662 12.277-0.93394 24.553-1.4006 36.829-0.21397 2.8055 3.3552 2.1736 4.6785-3.5284 0.19298-5.2244 28.564 13.451 21.35 39.392-10.628 31.885-16.362 58.26-15.371 77.061-3.0152-0.56598-4.1041 3.0568-2.2521 13.077-0.93633 6.9245-1.2524 12.858 2.0378 12.969 3.6011 23.763 8.5577 38.339 15.715 37.937-63.056 97.596-92.225 172.12-86.952 223.21-3.1922 8.9067-4.0968 19.774 0.8395 35.659 4.1531 11.588 4.6638 26.008 4.1862 41.192 4.3554-0.8807 8.8496-11.098 13.312-19.339-1.8164 39.282-2.9234 76.734 3.3835 94.991 2.1313 5.8232 2.8815 12.229 2.4279 21.115 3.07-2.8663 4.7295-8.7552 7.2164-12.746-0.16033 3.139-0.92613 6.5264-0.48305 9.418 6.7942-7.3821 5.2607-8.0336 7.8918-12.05 3.7759 26.535 6.4503 56.024 15.253 69.122 1.2331-2.2667 2.4667-4.535 3.6998-6.8018 3.3718 4.5214 3.9126 14.942 4.4193 25.43 5.8022-5.9693 7.1959-15.087 10.792-22.631 1.0164 22.503-1.9766 49.515-9.7892 81.943 24.315-13.92 19.838-27.925 29.758-41.888 0.23071 27.019 1.975 47.391 5.6288 59.38 1.6347-2.3749 3.2689-4.7508 4.9046-7.1261 4.2914 3.4067 8.5044 12.092 12.665 24.181 1.9337 8.1983 4.0384 16.569 5.9721 24.767 10.893-10.35 10.629-30.975 21.847-40.119 12.825 28.752 5.7587 58.238 38.474 86.259 0 0 10.614 18.065 13.038 16.388 9.5752-6.9874 16.488-9.4283 29.504-24.838 11.804 17.716 19.997 37.652 26.723 58.494 3.794 9.9394 4.4747 10.236 10.275 0.4964 4.5137-11.53 11.947-12.048 14.446-26.349 12.059 44.319 29.435 76.893 50.945 100.33 9.0754-6.9429 15.053-14.006 18.824-21.142 0.73258-3.1006 6.6859 1.7809 8.2316-0.3912 7.7527-10.339 15.504-20.678 23.257-31.016 7.6113 2.9121 4.6899 0.6812 7.0758-3.3231 0.60796-2.4466 1.2157-4.8951 1.8229-7.342 5.8563 12.645 10.584 26.789 12.71 44.406 19.833-13.564 34.645-39.565 50.631-62.656 0.9292 8.7466 3.1109 15.968-1.8447 31.849 4.1013-3.4052 8.2617-6.1335 12.756-4.9514 11.06 1.1793 15.767-13.09 22.278-22.976 17.094 3.2225 35.148-21.714 53.082-43.081 4.503 19.382 10.177 36.636 22.69 41.468 10.56-4.8378 16.632-35.564 22.907-65.124 7.116 13.13 14.233 26.261 21.349 39.391 3.4582-6.2438 7.3322-9.031 8.5353-20.781 15.385 10.226 52.114-77.77 49.122-99.351 3.427 7.7056 6.1076 19.513 10.28 23.117 4.1168-61.633 1.6355-82.92 21.758-126.15 2.0623 22.652 7.4044 43.639 6.1853 67.957 20.973-30.379 28.451-74.11 26.909-126.76 8.9195 21.369 22.014 37.874 40.236 48.413-16.5-44.148-23.55-74.356-21.268-90.805 5.4721 8.4218 10.945 16.843 16.418 25.264 0.7121-127.5-23.169-228.84-61.461-314.87 22.258-57.147 13.628-112.55-15.338-166.8 5.567-21.786 19.103-28.559 34.47-31.884z" style="fill-rule:evenodd;fill:#212121;stroke-width:8.1184"/>
 <g transform="matrix(7.6633 2.68 -2.68 7.6633 247 -1083)">
  <path d="m123.57 214.83c1.9707 3.0669 2.5695 5.1081 4.3762 11.068 4.4383-8.8273 12.76-11.74 15.834-9.9019 0 0 3.4785 3.1999 5.7706 2.442 1.9095-0.594 2.5349-3.7732 3.3239-4.5859 5.886-6.0625 14.949-3.9632 16.07-3.5241-0.7245-3.7335-2.8568-9.4899-2.1735-11.201-3.8623 0.1371-12.806 6.7276-17.554-1.2719-7.3028-16.851-14.682-12.415-11.442 4.523 0.7678 9.2066-9.1419 9.5338-14.206 12.452z" style="fill-rule:evenodd;fill:#e7c3b0"/>
  <path d="m137.12 192.61c1.5601 2.5814 1.8382 6.3911 2.7573 9.5865" style="fill-rule:evenodd;fill:#212121;stroke-width:.5669;stroke:#212121"/>
  <path d="m143.91 189.09c-0.2814 3.2442 1.5462 6.6753 2.3195 10.013" style="fill-rule:evenodd;fill:#212121;stroke-width:.5669;stroke:#212121"/>
  <path d="m138.44 216.05c-1.1139-4.1015-0.5916-7.5624 1.5692-10.382" style="fill-rule:evenodd;fill:#212121;stroke-width:.5669;stroke:#212121"/>
  <path d="m156.3 211.38c-0.689-2.8858-2.8723-8.3883-6.9921-10.22" style="fill-rule:evenodd;fill:#212121;stroke-width:.5669;stroke:#212121"/>
  <path d="m175.73 191.61c1.4352 1.154 3.2868 2.5325 5.2054 3.8057-0.0843-5.727-2.3189-11.152-6.7111-16.274 0.8286 3.7424 1.7423 7.3062 2.1155 9.8595 0.1526 1.0443-0.1845 1.7732-0.6098 2.6091z" style="fill-rule:evenodd;fill:#e7c3b0"/>
  <path d="m109.28 215.89c-2.1763-0.7701-5.7895-8.676-5.1098-14.004 1.6166 3.2791 3.4404 7.2702 5.0973 9.4925 0.2606 0.5163 1.1677 1.1987 0.8806 1.8424-0.3228 1.2903-0.4751 0.7553-0.8681 2.6696z" style="fill-rule:evenodd;fill:#e7c3b0"/>
  <path d="m101.02 188.84c0.4878-1.1148 1.1925-2.1889 2.2501-3.1966 3.8753-1.1125 6.0126-3.0194 6.8094-5.5386-0.4144 1.7468-0.848 3.4866-0.5753 5.4866-2.3863 0.6411-5.119 1.6286-8.4842 3.2486z" style="fill-rule:evenodd;fill:#dbdbdb"/>
  <path d="m159.83 163.35c2.341 1.0929 4.6389 2.0906 6.2806 1.6233 0.29 0.5493 0.7643 0.7909 1.3215 0.8947-1.7355 0.8139-3.6025 1.5504-5.8543 2.0612-0.55-1.8627-1.1442-3.2695-1.7478-4.5792z" style="fill-rule:evenodd;fill:#dbdbdb"/>
 </g>
 <path d="m1124.3 704.55c3.0268-13.224-0.2624-42.147 5.6951-60.239-75.554 2.4164-158.01 8.1555-255.67 21.212-35.643 7.4665-47.672 17.342-96.236-5.2034-95.136-16.996-192.76-22.023-292.82-15.329-2.8386 13.485-3.8004 25.487-1.5485 34.937 20.548 12.808 28.218 26.765 26.801 41.529 1.8967 46.791 10.179 83.692 19.128 119.56 26.51 64.782 207.38 57.12 220.02 13.388 3.5753-8.1156 6.8058-11.564 7.6939-15.99 33.712-167.89 96.515-137.21 106.22-3.9068 18.586 79.108 208.46 49.203 216.83 8.8832 29.338-82.073-14.664-112.41 43.884-138.84z" style="fill-rule:evenodd;fill:#141414;stroke-width:8.1184"/>
 <path d="m593.25 632.4c10.434-28.72 22.062-53.61 41.252-54.225 35.753 1.4072 59.692-8.9588 81.887-21.059 34.468 9.7262 66.742 15.109 91.433 5.4744 9.8035 7.7399 32.941-2.3473 56.403-12.871 17.46 12.219 35.34 17.018 54.044 7.3173 24.348 11.832 46.702 20.899 60.735 18.385 20.584 14.131 35.797 20.642 45.639 19.531 2.1298 10.254 2.3665 25.563 2.113 42.189-64.946 11.232-126.09 16.17-159.04 23.682-25.993 9.6871-53.592 10.152-84.216-6.739-54.768-10.891-119.84-17.416-190.25-21.685z" style="fill-rule:evenodd;fill:#e7c3b0;stroke-width:8.1184"/>
 <g transform="matrix(7.6633 2.68 -2.68 7.6633 247 -1083)">
  <path d="m113.32 210.93c3.8661 3.3693 17.866-1.8429 20.533-5.4154-0.5128-16.636-0.143-19.26-3.1462-19.597-10.595 0.6517-25.156 4.6268-23.897 8.4049 0.2215 4.929 2.7946 11.143 6.5107 16.608z" style="fill-rule:evenodd;fill:#3a3934"/>
  <path d="m165.83 171.84c5.1126-1.7884 5.7676 11.556 6.4308 16.368 1.0022 6.5062-16.894 10.596-18.21 9.4473-3.3102-1.8341-6.232-9.2479-8.4736-14.352-0.1156-0.2714-0.1037-0.3719-0.055-0.4988 1.6428-4.2759 13.697-9.5167 20.308-10.964z" style="fill-rule:evenodd;fill:#3a3934"/>
  <path d="m116.33 175.79c-1.2943 1.5902-0.0516 1.6179-1.4772 4.2156 0.7166-0.2145 1.7474-0.8649 2.8304-1.5879-1.5683 1.1269-1.8529 2.371-3.1311 3.2231 0.7405 0.1194 2.0468-0.4094 3.5177-1.1272-0.835 0.7297-0.535 1.3473-1.4688 2.2024 0.7482-8e-3 1.6748-0.265 2.69-0.5402 1.7334-0.9267 2.3376-1.6674 2.8171-1.6948 14.054 0.3543 8.3093-9.4481-1.8314-7.8131-1.0119 1.1126-2.3004 2.1597-3.9467 3.1221z" style="fill-rule:evenodd;fill:#dbdbdb"/>
  <path d="m152.19 163.23c1.966 0.7507 1.6469 1.8904 3.8439 3.0229-1.1955 0.1564-2.0748 0.3233-3.2172 0.4265 1.9842-0.0785 2.7911 0.8132 4.4384 0.7018-0.9306 0.4556-2.0871 0.8579-3.4911 1.2074 1.1112 0.1427 1.4214 0.8996 2.4962 0.8816-0.5469 0.4338-1.4489 0.7652-2.4766 1.1808-1.9429 0.2979-2.8706 0.0674-3.2708 0.3331-11.034 8.711-12.315-2.5782-3.2195-7.3508 1.9247 0.1086 3.6582 0.0584 4.8967-0.4033z" style="fill-rule:evenodd;fill:#dbdbdb"/>
  <path d="m133.28 170.58c0.5115 1.591 1.4801 2.8181 1.7144 4.4122" style="fill:none;stroke-width:.2835;stroke:#212121"/>
  <path d="m138.45 174.15c-0.2603-1.6856-1.1337-3.1113-1.1737-4.9263" style="fill:none;stroke-width:.2835;stroke:#212121"/>
 </g>
 <path d="m1135.3 653.82c18.372-2.947 27.943-3.9601 30.727-3.4846 5.4291-10.569-4.8472-35.305-5.9078-63.665 12.9-27.156 13.83-49.392 0.982-65.964 6.4784-23.482 7.3372-44.749-1.8172-62.065-21.54-21.067-54.003-31.125-99.668-27.876-29.953-12.301-59.8-22.233-88.353-5.0854-41.128-15.349-79.702-18.327-115.72-8.9205-59.5-23.156-121.52-27.187-188.24 4.3944-20.084 2.0427-36.063 1.8231-49.723 1.6583-31.416 8.011-50.044 26.698-76.175 28.685-28.371-2.7215-54.396 6.1761-78.512 24.537-0.5912 34.509-11.474 70.076-27.631 106.18 5.2108 16.463 32.61 15.757 25.744 66.534 6.08 0.0286 11.723-0.14889 17.143-0.42931-0.5221-3.8928-0.56061-7.7766 0.51678-11.647 1.746-1.1929 15.944-1.7379 30.698-1.5984 11.018-10.775 16.681-12.988 31.693-22.15 23.302 5.0676 55.89-5.6981 74.871-33.16 7.6938-3.2531 10.084-5.9098 18.35-5.767 38.892 0.6712 66.938-12.454 80.083-21.557 52.819 13.228 76.542 11 92.134 4.4561 12.266 8.5383 34.831-1.4825 57.763-12.164 18.196 12.063 36.418 18.243 54.725 7.6688 16.866 11.405 36.607 18.874 61.405 19.423 16.993 12.157 33.998 23.761 51.52 15.849 15.573 18.244 31.092 32.048 46.466 32.911 15.532 22.784 37.449 20.244 59.374 17.678 0 5.3012-0.6373 10.513-2.4574 15.556z" style="fill-rule:evenodd;fill:#f7f7f7;stroke-width:8.1184"/>
 <path d="m525.81 848.59c-53.565 87.156-119.06 178.09-100.95 242.53-3.5377 19.097-1.5726 39.659 2.18 60.698 7.9649-21.828 16.32-36.079 24.993-44.184-13.32 25.342-15.787 72.706-9.5904 137.64 6.6282-15.439 13.256-30.879 19.884-46.317-7.0885 37.826-4.5326 74.993 15.828 110.94 6.9531-14.292 12.041-29.811 20.86-42.876-13.683 36.304-0.71357 70.226-11.839 116.1 16.74-27.368 27.143-57.515 37.439-85.9-14.833 27.888-8.5428 76.527 15.359 142.47 7.7597-14.737 15.519-29.474 23.278-44.21 7.5416 39.435 14.58 79.024 44.957 111.38 14.822-12.426 22.427-8.8503 33.381-32.063 1.1732 17.067 15.463 28.31 31.114 74.154 11.437-11.351 15.786-23.403 21.433-35.326 10.215 44.001 26.913 79.028 50.193 104.94 8.2806-3.9398 13.138-13.181 17.818-22.699 3.2315 3.6535 5.8864 5.6261 7.1452 3.5343 7.4484-9.5477 14.898-19.097 22.346-28.644 3.1827 2.1159 5.8939 3.5956 6.1569 1.7713 1.5734-5.8442 3.1458-11.688 4.7187-17.533 6.5828 11.608 11.94 25.802 16.164 42.399 18.93-17.775 32.579-40.313 47.531-61.672 3.0433 5.7533 4.0481 16.63 3.2962 31.925 10.348-3.9821 18.053-13.925 25.719-23.952 17.291 5.2379 38.327-22.043 59.342-49.159 4.7309 19.23 10.672 35.842 19.182 46.9 11.178-25.082 16.795-50.248 19.289-75.46 8.6104 11.673 16.897 24.457 24.065 41.144 2.0045-4.197 4.01-8.3944 6.0144-12.591 26.471-11.442 40.132-49.484 47.097-101.44 2.2357-11.963 9.3805 14.534 13.446 17.68 3.8233-47.007 11.173-93.41 23.45-124.75 2.7542 5.1439 6.4791 27.211 11.045 63.915 21.303-51.491 17.046-93.097 14.009-135.18 11.182 18.987 20.057 41.854 35.886 52.974-10.855-35.837-15.507-72.058-20.323-108.27 7.6052 16.994 14.675 35.629 24.331 46.29 1.1533-132.16-30.817-246.56-96-343.15-15.046 13.936-39.426 22.728-75.777 24.922-9.047 13.932-14.818 46.378-17.539 96.051 14.026 18.794 26.936 38.486 38.186 59.522-4.3308-0.6356-8.6639-1.272-12.996-1.9071 4.3271 14.885 10.958 29.04 19.416 42.618-12.1-3.7182-23.981-7.2764-27.861-4.8698 6.9659 12.74 18.93 24.09 41.503 32.493-14.429 8.019-36.14 2.4559-57.378-2.2252-0.20764 5.1556-0.79195 11.624-1.2937 17.803-34.595-22.664-42.271-51.6-102.9-64.084-4.3444 54.417-177.63 54.891-179.44 12.065-23.676 14.507-46.912 29.737-72.922 40.387 2.9049-5.4069 5.1687-10.255 3.427-11.604-18.814 10.257-37.362 17.992-55.111 18.202 16.485-13.265 32.198-27.003 40.943-44.978-10.81 4.6729-21.655 11.756-32.539 21.453 1.5-21.63 8.8555-40.714 21.252-57.608-3.8491-4.3468-12.015-0.888-19.733 1.7621 9.174-18.036 20.278-34.083 32.603-48.87 0.46342-36.684 1.212-73.726-7.7854-98.485-32.476 0.90266-60.54-14.79-84.301-46.662z" style="fill-rule:evenodd;fill:#dbdbdb;stroke-width:8.1184"/>
 <g transform="matrix(7.6633 2.68 -2.68 7.6633 247 -1083)">
  <path d="m140.94 231.65c1.7481 4.7665 21.475-2.2606 19.091-7.7386-0.388-0.195-0.8109-0.1989-1.2615-0.047-1.982 3.9601-13.722 8.4266-15.814 6.0906-0.8518 0.3599-1.5466 0.8986-2.0161 1.695z" style="fill-rule:evenodd;fill:#d9ac93"/>
  <path d="m143.95 229.23c-0.9015 1.8352 11.423-0.9052 14.112-5.3233-4.0882 0.27-6.0238-0.6366-7.0883-1.777-0.9806 2.894-4.0484 4.6772-7.0232 7.1003z" style="fill-rule:evenodd;fill:#e7c3b0"/>
  <path d="m113.12 232.04c-0.281 3.0515-0.1037 6.1237 0.3985 9.2112 0.9869-1.2226 1.4777-3.9355 1.9771-6.6208m14.3 25.209c0.3428-0.3763 0.4459-1.3522 0.4329-2.6187 1.1001 4.3489 2.6974 8.4753 4.8298 12.362 0.446-3.9027 0.021-6.687-0.3049-9.5982 1.1043 3.551 3.0981 7.0177 5.6978 10.427m-16.283-19.807c1.8713 6.3475 3.7866 8.2213 5.9924 11.488l-1.3065-8.0631m-13.746-17.37c2.1785 6.6523 5.3154 12.34 8.8472 17.355 0.2963-2.0204 0.2644-5.0748 0.0283-7.796" style="fill:none;stroke-width:.5669;stroke:#1b1918"/>
  <path d="m183.48 210.72c1.3917 2.8368 3.5011 5.5298 6.6728 8.0109-1.7711 0.3823-3.542 0.7647-5.3131 1.1469 3.5277 1.9394 6.3151 5.6947 7.0986 14.366-1.343-3.1309-2.8557-5.2892-4.4839-6.7825 3.6612 6.5062 3.8065 11.803 2.9066 16.74-1.0675-1.958-2.1351-3.9162-3.2025-5.8743 0.2477 4.2546 0.7877 8.2167 2.6408 10.867-1.9987-0.2008-3.7946-2.4966-5.472-6.0084 1.797 2.6809 1.6909 7.9605 0.9577 14.097-1.3167-1.8159-2.6335-3.6316-3.9502-5.4474m1.9751 2.7236c-1.1942 2.3141-1.8603 5.0808-2.0575 8.2495" style="fill:none;stroke-width:.5669;stroke:#1b1918"/>
 </g>
 <path d="m717.6 1236.4c6.0308 27.789 12.06 55.578 18.091 83.368 9.8419-16.534 19.686-33.068 29.529-49.602" style="fill:none;stroke-width:4.6023;stroke:#1b1918"/>
 <path d="m748.26 1298.7c5.6877 10.299 9.8966 38.19 13.362 74.968 9.5065-32.168 28.083-44.618 31.882-69.446 7.4105 14.674 11.782 31.309 13.657 49.559 17.712-24.27 31.242-56.122 41.834-93.29 4.7998 15.983 5.4545 35.088 6.0472 54.243" style="fill:none;stroke-width:4.6023;stroke:#1b1918"/>
 <path d="m855.01 1313.8c14.924-16.192 24.403-59.929 36.91-82.18" style="fill:none;stroke-width:4.6023;stroke:#1b1918"/>
 <path d="m917.77 1199.1c-6.202 37.728-14.577 56.064-26.724 63.543-0.77886-17.048-0.11052-33.651 4.6906-57.015" style="fill:none;stroke-width:4.6023;stroke:#1b1918"/>
 <path d="m683.79 1214.1c5.4087 20.417 10.816 40.833 16.225 61.251 9.2158-20.428 18.432-40.855 27.647-61.283" style="fill:none;stroke-width:4.6023;stroke:#1b1918"/>
 <g transform="matrix(7.6633 2.68 -2.68 7.6633 247 -1083)">
  <path d="m134.28 238.57c2.3285-2.311 6.6287-9.2828 15.008-15.722 1.3333-0.7814 1.029-2.1929 0.0477-3.8647-1.3971 1.0933-3.7149-0.2988-6.287-2.3776-5.9257-1.8584-14.638 5.7965-15.819 14.757 1.2061-0.8763 2.4121-1.7528 3.6182-2.6291-2.9882 2.5539-3.037 5.8824-2.6318 9.3306 1.2952-1.4103 2.5903-2.8206 3.8855-4.2309-0.5631 3.1395-1.6724 5.7329-3.1254 7.9823 1.9872-1.094 4.1456-3.3812 6.3824-6.2195-0.6206 1.2023-1.2131 2.3822-1.079 2.9739z" style="fill-rule:evenodd;fill:#dbdbdb"/>
  <path d="m150.74 219c2.7854-6.1479 12.668-12.842 23.536-3.8796-1.3604-0.1222-2.7035-0.1902-3.8313 0.3864 3.75 0.8089 5.7849 2.2589 6.6337 4.1529-1.6848-0.0265-3.2908 0.0164-4.045 0.8135 2.1403 0.1017 4.3095 3.4535 6.1668 3.1518-2.1938 0.4043-4.7413 0.0813-7.262-0.4288 0.8675 1.0014 2.0687 1.8693 2.6024 3.0042-5.5502-3.5499-11.742-3.9496-14.39-3.2604-5.4247 0.9734-8.9707 0.0691-9.4105-3.94z" style="fill-rule:evenodd;fill:#dbdbdb"/>
  <path d="m135.53 233.03c2.0357-3.6279 4.8281-6.6672 8.4656-9.0491" style="fill:none;stroke-width:.5669;stroke:#1b1918"/>
  <path d="m157.42 219.42c3.1546 0.1365 6.3011 0.6441 9.4377 1.6174" style="fill:none;stroke-width:.5669;stroke:#1b1918"/>
 </g>
 <path d="m1159.2 449.77c1.3632-11.027-1.122-19.823-4.3794-28.171 3.974-4.0741 6.5988-7.7652 5.9832-10.537 0.2009-36.556-55.38-170.94-60.452-221.63-41.678-132.94-243.88-239.66-534.65-140.26-103.71 91.197-170.36 241.91-276.9 365.36 5.5672 4.6329 10.797 9.9693 13.047 21.443 21.024 11.415 27.29 28.15 23.958 48.342 24.82 25.934 22.463 52.339 18.707 78.768 57.69-48.272 111.31-99.344 167.34-120.21 24.668 5.5702 58.339-1.9368 103.56-26.221 18.249 1.8219 36.442 3.4595 51.171-6.7786 160.39-36.842 133.97-4.9317 189.9-1.2852 75.58-11.194 65.221 0.3266 114.32 10.615 27.607-14.752 57.787-11.739 90.368 7.8583 31.768-4.4339 64.356 1.9764 98.034 22.707z" style="fill-rule:evenodd;fill:#7d231e;stroke-width:4.6023;stroke:#1b1918"/>
 <path d="m476.55 459.83c20.159-58.881 53.393-117.57 93.657-176.15" style="fill:none;stroke-width:4.6023;stroke:#212121"/>
 <path d="m1137.5 438.31c-7.4187-74.203-47.818-139.51-106.63-199.86" style="fill-rule:evenodd;fill:#212121;stroke-width:4.6023;stroke:#212121"/>
 <path d="m317.31 487.8c32.454 18.528 24.675 54.563 20.661 85.826 6.502 33.399-15.351 64.039-46.98 93.555-11.372 19.605-27.98 29.967-54.495 22.838-17.647 19.348-33.203 27.199-45.872 19.197-6.9384 6.1688-14.258 5.6234-21.921-1.0129-15.881 5.2596-26.562-1.2091-32.989-17.286-14.785 1.511-25.721-4.97-31.548-22.063-11.364-2.8142-19.654-8.6142-26.847-15.481-10.784-0.34596-17.085-7.8345-19.912-20.862-12.789-7.3408-18.172-15.625-18.141-24.604-5.8543 0.1965-5.5259-8.3614-5.2333-16.873-51.704-0.5575-15.016-52.889 1.7365-93.545 4.4539-27.341 16.738-45.576 35.118-56.715 0.95941-8.5669 5.9608-15.148 15.542-19.476 3.4503-13.422 10.12-23.05 23-25.363 18.346-10.784 41.052-7.475 65.937 2.8664 23.277-13.46 46.119-12.758 68.512 2.5619 15.382-3.178 29.239-3.5647 35.675 9.615 12.161 7.9211 18.253 17.264 17.573 28.196 19.394 8.0563 30.264 33.424 20.183 48.626z" style="fill-rule:evenodd;fill:#f7f7f7;stroke-width:8.1184"/>
 <g transform="matrix(7.6633 2.68 -2.68 7.6633 247 -1083)">
  <path d="m42.85 193.31c0.3471-2.3334 0.7952-4.6923 1.9105-7.2217 1.3278-0.4908 2.3447-2.0634 3.2981-3.8572 1.0499-1.7478 2.5525-2.6694 3.9388-3.8037m-8.6505 12.081c0.1573-3.7095 1.8882-6.0137 3.6972-8.6509m1.7467-0.6467c1.9981-0.6405 3.9632-1.7103 5.1957-2.6892" style="fill:none;stroke-width:.5669;stroke:#212121"/>
  <path d="m58.096 207.42c1.4026-0.7621 2.7628-0.8494 4.0045 0.9354 2.1874 0.6825 4.0025-0.801 5.6209-3.4295m5.8877-5.1552c0.8087-0.099 1.8713-1.7047 2.7514-4.4412m-3.7609 6.269c1.2096-1.2033 0.8889-2.9769 2.4789-3.9731m-8.4165 8.8104c2.9682-2.0209 6.4528-2.6778 5.9731-6.2612" style="fill:none;stroke-width:.5669;stroke:#1b1918"/>
 </g>
</svg>
