<?xml version="1.0" encoding="UTF-8" standalone="no"?>
<svg
   xmlns:dc="http://purl.org/dc/elements/1.1/"
   xmlns:cc="http://creativecommons.org/ns#"
   xmlns:rdf="http://www.w3.org/1999/02/22-rdf-syntax-ns#"
   xmlns:svg="http://www.w3.org/2000/svg"
   xmlns="http://www.w3.org/2000/svg"
   xmlns:sodipodi="http://sodipodi.sourceforge.net/DTD/sodipodi-0.dtd"
   xmlns:inkscape="http://www.inkscape.org/namespaces/inkscape"
   version="1.1"
   width="1612.443"
   height="1626.288"
   id="svg3009"
   viewBox="0 0 1612.443 1626.288"
   sodipodi:docname="coolSantaInk.svg"
   inkscape:version="1.0.1 (0767f8302a, 2020-10-17)">
  <metadata
     id="metadata3015">
    <rdf:RDF>
      <cc:Work
         rdf:about="">
        <dc:format>image/svg+xml</dc:format>
        <dc:type
           rdf:resource="http://purl.org/dc/dcmitype/StillImage" />
        <dc:title></dc:title>
      </cc:Work>
    </rdf:RDF>
  </metadata>
  <defs
     id="defs3013" />
  <sodipodi:namedview
     pagecolor="#ffffff"
     bordercolor="#666666"
     borderopacity="1"
     objecttolerance="10"
     gridtolerance="10"
     guidetolerance="10"
     inkscape:pageopacity="0"
     inkscape:pageshadow="2"
     inkscape:window-width="1360"
     inkscape:window-height="668"
     id="namedview3011"
     showgrid="false"
     showguides="true"
     inkscape:guide-bbox="true"
     inkscape:zoom="0.26041681"
     inkscape:cx="1077.3242"
     inkscape:cy="906.64224"
     inkscape:window-x="0"
     inkscape:window-y="27"
     inkscape:window-maximized="1"
     inkscape:current-layer="svg3009">
    <sodipodi:guide
       position="0,1626.288"
       orientation="1,0"
       id="guide3231" />
    <sodipodi:guide
       position="1181.379,1626.288"
       orientation="1,0"
       id="guide3233" />
    <sodipodi:guide
       position="1181.379,1626.288"
       orientation="0,-1"
       id="guide3235" />
    <sodipodi:guide
       position="0,0"
       orientation="0,-1"
       id="guide3237" />
  </sodipodi:namedview>
  <g
     id="g4164">
    <rect
       style="fill:#7d231e;fill-opacity:0;stroke-width:1648.16;paint-order:markers fill stroke"
       id="rect3225"
       width="1612.4432"
       height="1370.2888"
       x="0"
       y="80.133308" />
    <g
       id="g3288">
      <path
         d="m 1134.1989,708.74579 c 4.3597,0.74978 0.5506,-31.09781 2.7841,-48.8018 0.7018,-4.90113 35.6261,0.20346 35.1621,-6.94417 -0.4719,-22.11439 -4.5051,-41.61002 -6.866,-63.40892 11.1919,-28.343 13.5682,-54.0076 1.808,-75.379 3.3239,-19.7841 2.9438,-36.4481 0.085,-51.753 -2.3942,-4.1838 -2.976,-26.5938 -6.7738,-40.0315 1.5946,-3.4604 5.405,-6.2036 4.7816,-10.3822 -2.283,-30.9363 -12.9188,-64.7422 -22.3068,-90.4719 -15.803,-43.5374 -25.8158,-84.5872 -32.9409,-135.5343 C 1034.9994,0.981 821.55897,-43.5566 562.31706,41.4699 520.59515,65.7549 458.08193,151.4241 415.00154,220.9312 357.35195,322.5755 320.14882,363.9227 281.96938,408.1475 c -7.48988,-11.5372 -20.6967,-13.6747 -37.55709,-9.8138 -21.23323,-14.2924 -41.36676,-17.1459 -60.22418,-6.7237 -8.98131,4.2563 -9.09499,5.2847 -21.56837,-1.692 -19.23123,-8.911 -37.9438,-6.6792 -55.07179,4.1491 -18.25538,4.1264 -20.21327,14.9483 -23.17036,25.3615 -3.06889,2.8116 -8.34604,4.2179 -11.41494,7.0295 -2.5622,3.276 -2.91792,7.955 -5.47986,11.2303 -21.00883,13.2957 -32.04896,32.0146 -34.92483,55.1754 -1.45862,7.7859 -4.80546,14.4024 -8.53701,20.7811 -29.98492,48.6344 -31.19656,74.6504 -7.54803,81.1215 20.31708,0.5285 11.19709,9.2663 18.93382,17.4195 6.30833,17.5177 11.54329,15.1376 17.31415,22.70745 6.20049,16.62591 13.88306,23.60604 22.60859,23.8142 8.14425,5.49029 15.43966,10.45667 23.44765,13.54535 10.94521,23.54186 22.7563,23.72137 33.59105,22.94965 7.41987,17.02482 19.75543,22.28316 35.7073,18.8683 7.80111,5.32298 15.45223,5.99654 22.94012,1.71415 9.27573,2.9214 19.59454,4.08239 43.97688,-18.53994 25.23532,4.24554 44.50623,-3.66514 57.76547,-23.81823 33.80068,-14.54838 49.59488,-50.18603 53.75126,-99.45393 32.94638,-34.5389 72.33873,-62.4424 110.53066,-91.581 0.42365,23.1966 -9.00961,54.7667 -27.10181,93.6799 -2.32788,8.3558 -2.47536,7.2257 1.02345,11.8413 6.34841,7.1775 12.69758,14.3553 19.04572,21.5336 3.81389,3.3016 3.16552,3.0086 2.78019,8.9527 -0.36817,9.306 -2.77865,23.55173 -1.10271,27.91776 1.11737,1.71611 3.87942,2.30019 3.89052,3.48578 0.0861,1.82935 -1.09553,5.52543 0.2612,5.48731 7.20328,-0.40676 14.40808,-0.81298 21.61136,-1.21974 -0.4662,12.27674 -0.93394,24.55294 -1.40064,36.82865 -0.21397,2.80548 3.35519,2.17362 4.67848,-3.52845 0.19298,-5.2244 28.56356,13.45097 21.35013,39.39169 -10.62794,31.88501 -16.36165,58.25979 -15.37102,77.06121 -3.01522,-0.56598 -4.10413,3.05675 -2.25212,13.07728 -0.93633,6.92449 -1.25243,12.85753 2.03776,12.96923 3.60113,23.76349 8.55771,38.3392 15.71547,37.93716 -63.05568,97.59588 -92.22464,172.12202 -86.95247,223.20542 -3.19224,8.9067 -4.09683,19.7736 0.8395,35.6589 4.15314,11.5882 4.66376,26.0075 4.18622,41.1915 4.35539,-0.8807 8.8496,-11.0977 13.31174,-19.3392 -1.81637,39.2815 -2.92345,76.734 3.38354,94.9908 2.13134,5.8232 2.88153,12.2289 2.42786,21.1154 3.06996,-2.8663 4.72951,-8.7552 7.21645,-12.7456 -0.16033,3.139 -0.92613,6.5264 -0.48305,9.418 6.7942,-7.3821 5.26067,-8.0336 7.89177,-12.0502 3.77588,26.5347 6.4503,56.0245 15.25317,69.1218 1.23307,-2.2667 2.46669,-4.535 3.69976,-6.8018 3.37182,4.5214 3.91264,14.9417 4.41933,25.43 5.80217,-5.9693 7.19587,-15.0869 10.79227,-22.631 1.01641,22.5027 -1.97658,49.5151 -9.78922,81.9427 24.3147,-13.92 19.8381,-27.9253 29.75829,-41.8875 0.23071,27.0192 1.97496,47.3914 5.62875,59.3795 1.63468,-2.3749 3.26887,-4.7508 4.90458,-7.1261 4.29144,3.4067 8.50439,12.0915 12.66532,24.1812 1.9337,8.1983 4.03844,16.569 5.97214,24.7673 10.89318,-10.3503 10.6287,-30.9748 21.84745,-40.119 12.82545,28.7525 5.75872,58.2381 38.47429,86.2586 0,0 10.61401,18.0653 13.03773,16.3878 9.5752,-6.9874 16.4879,-9.4283 29.50396,-24.8381 11.80354,17.7159 19.99664,37.6523 26.72323,58.4941 3.794,9.9394 4.47466,10.2359 10.27516,0.4964 4.51373,-11.5295 11.94716,-12.0484 14.44575,-26.3493 12.05935,44.319 29.43538,76.893 50.94548,100.3291 9.07542,-6.9429 15.05282,-14.006 18.82399,-21.1423 0.73258,-3.1006 6.6859,1.7809 8.2316,-0.3912 7.75266,-10.3391 15.50429,-20.6778 23.25744,-31.0159 7.61133,2.9121 4.68987,0.6812 7.07585,-3.3231 0.60796,-2.4466 1.21568,-4.8951 1.82287,-7.342 5.85633,12.6448 10.5838,26.7886 12.71023,44.4056 19.83324,-13.5641 34.64462,-39.5646 50.63082,-62.6557 0.9292,8.7466 3.11089,15.9677 -1.84466,31.8493 4.10129,-3.4052 8.2617,-6.1335 12.75576,-4.9514 11.0598,1.1793 15.76702,-13.0897 22.27753,-22.9757 17.09406,3.2225 35.14801,-21.7136 53.08155,-43.0813 4.50296,19.3821 10.17689,36.6357 22.68969,41.4684 10.55988,-4.8378 16.63193,-35.564 22.90663,-65.1235 7.11605,13.13 14.23255,26.2611 21.34855,39.3911 3.4582,-6.2438 7.3322,-9.031 8.5353,-20.7808 15.3852,10.226 52.1135,-77.7703 49.1217,-99.3512 3.427,7.7056 6.1076,19.5133 10.2803,23.1167 4.1168,-61.633 1.6355,-82.9201 21.7583,-126.1493 2.0623,22.6525 7.4044,43.6388 6.1853,67.957 20.9733,-30.3793 28.4506,-74.1099 26.9092,-126.7595 8.9195,21.3688 22.014,37.8745 40.2364,48.4134 -16.5003,-44.1477 -23.5495,-74.3565 -21.2685,-90.8046 5.4721,8.4218 10.9452,16.843 16.4176,25.2639 0.7121,-127.4952 -23.1687,-228.84417 -61.4612,-314.87236 22.2578,-57.14726 13.6275,-112.54774 -15.338,-166.80423 5.567,-21.78622 19.1026,-28.55918 34.4698,-31.88352 z"
         style="fill:#212121;fill-rule:evenodd;stroke-width:8.11837"
         id="path2291" />
      <g
         id="Layer1010"
         transform="matrix(7.6632615,2.6800004,-2.6800004,7.6632615,247.00347,-1082.9966)">
        <path
           d="m 123.574,214.8315 c 1.9707,3.0669 2.5695,5.1081 4.3762,11.0676 4.4383,-8.8273 12.7601,-11.7404 15.8345,-9.9019 0,0 3.4785,3.1999 5.7706,2.442 1.9095,-0.594 2.5349,-3.7732 3.3239,-4.5859 5.886,-6.0625 14.9487,-3.9632 16.0704,-3.5241 -0.7245,-3.7335 -2.8568,-9.4899 -2.1735,-11.2006 -3.8623,0.1371 -12.8058,6.7276 -17.5541,-1.2719 -7.3028,-16.8512 -14.6816,-12.4149 -11.4415,4.523 0.7678,9.2066 -9.1419,9.5338 -14.2065,12.4518 z"
           style="fill:#e7c3b0;fill-rule:evenodd"
           id="path2293" />
        <path
           d="m 137.1183,192.6082 c 1.5601,2.5814 1.8382,6.3911 2.7573,9.5865"
           style="fill:#212121;fill-rule:evenodd;stroke:#212121;stroke-width:0.5669;stroke-linecap:butt;stroke-linejoin:miter;stroke-dasharray:none"
           id="path2295" />
        <path
           d="m 143.911,189.0859 c -0.2814,3.2442 1.5462,6.6753 2.3195,10.013"
           style="fill:#212121;fill-rule:evenodd;stroke:#212121;stroke-width:0.5669;stroke-linecap:butt;stroke-linejoin:miter;stroke-dasharray:none"
           id="path2297" />
        <path
           d="m 138.439,216.0469 c -1.1139,-4.1015 -0.5916,-7.5624 1.5692,-10.3815"
           style="fill:#212121;fill-rule:evenodd;stroke:#212121;stroke-width:0.5669;stroke-linecap:butt;stroke-linejoin:miter;stroke-dasharray:none"
           id="path2299" />
        <path
           d="m 156.3044,211.3808 c -0.689,-2.8858 -2.8723,-8.3883 -6.9921,-10.2202"
           style="fill:#212121;fill-rule:evenodd;stroke:#212121;stroke-width:0.5669;stroke-linecap:butt;stroke-linejoin:miter;stroke-dasharray:none"
           id="path2301" />
      </g>
      <g
         id="Layer1011"
         transform="matrix(7.6632615,2.6800004,-2.6800004,7.6632615,247.00347,-1082.9966)">
        <path
           d="m 175.7277,191.6111 c 1.4352,1.154 3.2868,2.5325 5.2054,3.8057 -0.0843,-5.727 -2.3189,-11.1518 -6.7111,-16.2743 0.8286,3.7424 1.7423,7.3062 2.1155,9.8595 0.1526,1.0443 -0.1845,1.7732 -0.6098,2.6091 z"
           style="fill:#e7c3b0;fill-rule:evenodd"
           id="path2304" />
        <path
           d="m 109.2753,215.8929 c -2.1763,-0.7701 -5.7895,-8.676 -5.1098,-14.0045 1.6166,3.2791 3.4404,7.2702 5.0973,9.4925 0.2606,0.5163 1.1677,1.1987 0.8806,1.8424 -0.3228,1.2903 -0.4751,0.7553 -0.8681,2.6696 z"
           style="fill:#e7c3b0;fill-rule:evenodd"
           id="path2306" />
      </g>
      <g
         id="Layer1012"
         transform="matrix(7.6632615,2.6800004,-2.6800004,7.6632615,247.00347,-1082.9966)">
        <path
           d="m 101.0198,188.8391 c 0.4878,-1.1148 1.1925,-2.1889 2.2501,-3.1966 3.8753,-1.1125 6.0126,-3.0194 6.8094,-5.5386 -0.4144,1.7468 -0.848,3.4866 -0.5753,5.4866 -2.3863,0.6411 -5.119,1.6286 -8.4842,3.2486 z"
           style="fill:#dbdbdb;fill-rule:evenodd"
           id="path2309" />
        <path
           d="m 159.8345,163.3477 c 2.341,1.0929 4.6389,2.0906 6.2806,1.6233 0.29,0.5493 0.7643,0.7909 1.3215,0.8947 -1.7355,0.8139 -3.6025,1.5504 -5.8543,2.0612 -0.55,-1.8627 -1.1442,-3.2695 -1.7478,-4.5792 z"
           style="fill:#dbdbdb;fill-rule:evenodd"
           id="path2311" />
      </g>
      <path
         d="m 1124.2875,704.54594 c 3.0268,-13.22432 -0.2624,-42.14654 5.6951,-60.23902 -75.5543,2.41635 -158.01055,8.15547 -255.66618,21.21236 -35.64319,7.46653 -47.6717,17.3424 -96.23559,-5.20335 -95.13641,-16.99555 -192.7613,-22.02339 -292.82331,-15.32873 -2.83862,13.48538 -3.80043,25.48731 -1.54849,34.9373 20.54817,12.80827 28.21796,26.76496 26.80095,41.5293 1.89672,46.79131 10.17925,83.69173 19.12778,119.56079 26.51001,64.78224 207.37667,57.12037 220.01914,13.38829 3.57526,-8.11561 6.80576,-11.5639 7.69386,-15.98961 33.7122,-167.89292 96.51461,-137.21301 106.22373,-3.90678 18.58612,79.10806 208.45981,49.20311 216.82911,8.88321 29.3375,-82.07345 -14.6643,-112.4112 43.8839,-138.84376 z"
         style="fill:#141414;fill-rule:evenodd;stroke-width:8.11837"
         id="path2314" />
      <path
         d="m 593.24747,632.40267 c 10.43436,-28.71977 22.0624,-53.61027 41.25191,-54.22527 35.75302,1.4072 59.69179,-8.9588 81.88724,-21.0587 34.46835,9.7262 66.74205,15.1087 91.43289,5.4744 9.8035,7.7399 32.94122,-2.3473 56.40269,-12.8708 17.46012,12.2194 35.34033,17.0182 54.04441,7.3173 24.34782,11.8322 46.70247,20.8988 60.73524,18.385 20.58448,14.1308 35.79655,20.642 45.63875,19.5309 2.1298,10.2544 2.3665,25.5627 2.113,42.1891 -64.94627,11.23233 -126.09492,16.17012 -159.04466,23.68157 -25.99336,9.68709 -53.59241,10.15191 -84.216,-6.73898 -54.76762,-10.89085 -119.83965,-17.41613 -190.24547,-21.68452 z"
         style="fill:#e7c3b0;fill-rule:evenodd;stroke-width:8.11837"
         id="path2316" />
      <g
         id="Layer1013"
         transform="matrix(7.6632615,2.6800004,-2.6800004,7.6632615,247.00347,-1082.9966)">
        <path
           d="m 113.3161,210.9258 c 3.8661,3.3693 17.8664,-1.8429 20.5326,-5.4154 -0.5128,-16.636 -0.143,-19.2595 -3.1462,-19.5974 -10.5953,0.6517 -25.1556,4.6268 -23.8971,8.4049 0.2215,4.929 2.7946,11.1434 6.5107,16.6079 z"
           style="fill:#3a3934;fill-rule:evenodd"
           id="path2318" />
        <path
           d="m 165.8279,171.8438 c 5.1126,-1.7884 5.7676,11.5556 6.4308,16.3676 1.0022,6.5062 -16.8937,10.5955 -18.2104,9.4473 -3.3102,-1.8341 -6.232,-9.2479 -8.4736,-14.3523 -0.1156,-0.2714 -0.1037,-0.3719 -0.055,-0.4988 1.6428,-4.2759 13.6973,-9.5167 20.3082,-10.9638 z"
           style="fill:#3a3934;fill-rule:evenodd"
           id="path2320" />
      </g>
      <g
         id="Layer1014"
         transform="matrix(7.6632615,2.6800004,-2.6800004,7.6632615,247.00347,-1082.9966)">
        <path
           d="m 116.3279,175.7934 c -1.2943,1.5902 -0.0516,1.6179 -1.4772,4.2156 0.7166,-0.2145 1.7474,-0.8649 2.8304,-1.5879 -1.5683,1.1269 -1.8529,2.371 -3.1311,3.2231 0.7405,0.1194 2.0468,-0.4094 3.5177,-1.1272 -0.835,0.7297 -0.535,1.3473 -1.4688,2.2024 0.7482,-0.008 1.6748,-0.265 2.69,-0.5402 1.7334,-0.9267 2.3376,-1.6674 2.8171,-1.6948 14.0539,0.3543 8.3093,-9.4481 -1.8314,-7.8131 -1.0119,1.1126 -2.3004,2.1597 -3.9467,3.1221 z"
           style="fill:#dbdbdb;fill-rule:evenodd"
           id="path2323" />
        <path
           d="m 152.1932,163.2347 c 1.966,0.7507 1.6469,1.8904 3.8439,3.0229 -1.1955,0.1564 -2.0748,0.3233 -3.2172,0.4265 1.9842,-0.0785 2.7911,0.8132 4.4384,0.7018 -0.9306,0.4556 -2.0871,0.8579 -3.4911,1.2074 1.1112,0.1427 1.4214,0.8996 2.4962,0.8816 -0.5469,0.4338 -1.4489,0.7652 -2.4766,1.1808 -1.9429,0.2979 -2.8706,0.0674 -3.2708,0.3331 -11.0343,8.711 -12.3152,-2.5782 -3.2195,-7.3508 1.9247,0.1086 3.6582,0.0584 4.8967,-0.4033 z"
           style="fill:#dbdbdb;fill-rule:evenodd"
           id="path2325" />
      </g>
      <g
         id="Layer1015"
         transform="matrix(7.6632615,2.6800004,-2.6800004,7.6632615,247.00347,-1082.9966)">
        <path
           d="m 133.2789,170.5791 c 0.5115,1.591 1.4801,2.8181 1.7144,4.4122"
           style="fill:none;stroke:#212121;stroke-width:0.2835;stroke-linecap:butt;stroke-linejoin:miter;stroke-dasharray:none"
           id="path2328" />
        <path
           d="m 138.451,174.1512 c -0.2603,-1.6856 -1.1337,-3.1113 -1.1737,-4.9263"
           style="fill:none;stroke:#212121;stroke-width:0.2835;stroke-linecap:butt;stroke-linejoin:miter;stroke-dasharray:none"
           id="path2330" />
      </g>
      <path
         d="m 1135.3011,653.81962 c 18.3718,-2.94697 27.9433,-3.96009 30.7269,-3.48455 5.4291,-10.56864 -4.8472,-35.30507 -5.9078,-63.66467 12.9001,-27.1557 13.8298,-49.3923 0.982,-65.964 6.4784,-23.4825 7.3372,-44.7489 -1.8172,-62.0646 -21.5405,-21.0669 -54.0031,-31.1254 -99.6676,-27.8765 -29.953,-12.3011 -59.79959,-22.2334 -88.35316,-5.0854 -41.12816,-15.3492 -79.70167,-18.3267 -115.71533,-8.9205 -59.50033,-23.1555 -121.52176,-27.1871 -188.23502,4.3944 -20.08445,2.0427 -36.06308,1.8231 -49.72327,1.6583 -31.41552,8.011 -50.04404,26.6983 -76.17472,28.6847 -28.37082,-2.7215 -54.39598,6.1761 -78.51192,24.5371 -0.5912,34.5093 -11.47396,70.0765 -27.63063,106.1825 5.2108,16.463 32.61029,15.7572 25.74434,66.53388 6.08001,0.0286 11.72296,-0.14889 17.14303,-0.42931 -0.5221,-3.89285 -0.56061,-7.77655 0.51678,-11.6467 1.74597,-1.19292 15.9442,-1.73786 30.69775,-1.59836 11.01751,-10.77471 16.68085,-12.98771 31.69261,-22.14971 23.30172,5.0676 55.89047,-5.6981 74.87062,-33.1597 7.69385,-3.2531 10.08419,-5.9098 18.35006,-5.767 38.89159,0.6712 66.93809,-12.4545 80.08265,-21.5573 52.81949,13.2275 76.54202,11.0001 92.13388,4.4561 12.26611,8.5383 34.83107,-1.4825 57.76286,-12.1638 18.19596,12.0631 36.41792,18.243 54.72479,7.6688 16.86587,11.4052 36.60738,18.8743 61.40501,19.4234 16.99349,12.1568 33.99787,23.761 51.52007,15.8486 15.5727,18.2436 31.0921,32.0479 46.4664,32.9111 15.5319,22.78424 37.4487,20.24361 59.3743,17.6777 0,5.30121 -0.6373,10.51316 -2.4574,15.55552 z"
         style="fill:#f7f7f7;fill-rule:evenodd;stroke-width:8.11837"
         id="path2333" />
      <path
         d="m 525.80877,848.59166 c -53.56486,87.15592 -119.05817,178.08794 -100.95266,242.53354 -3.5377,19.0969 -1.5726,39.6591 2.17995,60.6976 7.96493,-21.8283 16.32008,-36.079 24.99277,-44.1845 -13.32024,25.3419 -15.78722,72.7057 -9.59045,137.642 6.62821,-15.4386 13.25619,-30.879 19.88413,-46.3169 -7.08848,37.8256 -4.53265,74.993 15.82789,110.9433 6.95312,-14.2921 12.0407,-29.8111 20.86012,-42.8759 -13.68344,36.3035 -0.71357,70.2256 -11.83927,116.1007 16.73964,-27.3678 27.14257,-57.5151 37.43928,-85.9003 -14.83343,27.8883 -8.54279,76.5267 15.35905,142.4687 7.75969,-14.7367 15.51888,-29.4745 23.2783,-44.2104 7.54157,39.4347 14.58021,79.0238 44.95658,111.3771 14.82192,-12.426 22.42736,-8.8503 33.38093,-32.063 1.17321,17.0669 15.46315,28.3101 31.11419,74.1535 11.43677,-11.3514 15.78639,-23.4027 21.43279,-35.3256 10.21488,44.0008 26.91277,79.0279 50.19301,104.9425 8.2806,-3.9398 13.13792,-13.181 17.81778,-22.6992 3.23153,3.6535 5.88642,5.6261 7.14517,3.5343 7.44835,-9.5477 14.898,-19.0966 22.34635,-28.6443 3.18272,2.1159 5.89389,3.5956 6.15687,1.7713 1.5734,-5.8442 3.14577,-11.6879 4.71867,-17.5332 6.58276,11.6079 11.94034,25.8018 16.16399,42.3994 18.93042,-17.775 32.57898,-40.3127 47.53124,-61.6721 3.04333,5.7533 4.04807,16.63 3.29623,31.9246 10.34834,-3.9821 18.05283,-13.9253 25.71925,-23.9515 17.29145,5.2379 38.32683,-22.0433 59.34206,-49.1587 4.73089,19.2297 10.67227,35.8415 19.1818,46.9002 11.1782,-25.0822 16.79455,-50.2484 19.28919,-75.4596 8.61042,11.6728 16.89742,24.4573 24.06472,41.1443 2.0045,-4.197 4.01,-8.3944 6.0144,-12.5914 26.4713,-11.4422 40.1322,-49.4841 47.0966,-101.4373 2.2357,-11.9632 9.3805,14.5344 13.446,17.6797 3.8233,-47.0073 11.173,-93.41 23.45,-124.7527 2.7542,5.1439 6.4791,27.2108 11.0452,63.915 21.3031,-51.4909 17.0459,-93.0968 14.0086,-135.1757 11.1818,18.9872 20.0572,41.8542 35.8859,52.9741 -10.8554,-35.8367 -15.5069,-72.0581 -20.3231,-108.2683 7.6052,16.9941 14.6753,35.6288 24.3309,46.2902 1.1533,-132.1624 -30.8173,-246.56482 -95.9996,-343.15456 -15.0457,13.93629 -39.4256,22.72814 -75.7773,24.9216 -9.04704,13.93216 -14.81825,46.37783 -17.5389,96.0507 14.02558,18.79396 26.9355,38.48616 38.186,59.52196 -4.3308,-0.6356 -8.6639,-1.272 -12.9958,-1.9071 4.3271,14.8854 10.9575,29.0402 19.4159,42.6182 -12.1001,-3.7182 -23.981,-7.2764 -27.8612,-4.8698 6.9659,12.7404 18.9299,24.0904 41.503,32.493 -14.4288,8.019 -36.1399,2.4559 -57.37757,-2.2252 -0.20764,5.1556 -0.79195,11.6244 -1.29369,17.803 -34.59479,-22.6642 -42.27144,-51.6003 -102.89789,-64.0842 -4.3444,54.4166 -177.62738,54.8908 -179.43929,12.0648 -23.6763,14.507 -46.91235,29.7372 -72.9224,40.3869 2.90492,-5.4069 5.16874,-10.2546 3.42696,-11.6042 -18.81417,10.2566 -37.36232,17.9918 -55.1109,18.2024 16.48465,-13.2653 32.19774,-27.0026 40.94288,-44.9776 -10.81011,4.6729 -21.65482,11.7565 -32.53942,21.4527 1.50005,-21.6295 8.85548,-40.7141 21.25196,-57.6083 -3.84912,-4.3468 -12.01482,-0.888 -19.73346,1.7621 9.17403,-18.0357 20.27843,-34.0831 32.6029,-48.87046 0.46342,-36.68425 1.21196,-73.72633 -7.78538,-98.48512 -32.47558,0.90266 -60.53998,-14.78963 -84.30123,-46.66226 z"
         style="fill:#dbdbdb;fill-rule:evenodd;stroke-width:8.11837"
         id="path2335" />
      <g
         id="Layer1016"
         transform="matrix(7.6632615,2.6800004,-2.6800004,7.6632615,247.00347,-1082.9966)">
        <path
           d="m 140.9408,231.6517 c 1.7481,4.7665 21.4754,-2.2606 19.0914,-7.7386 -0.388,-0.195 -0.8109,-0.1989 -1.2615,-0.047 -1.982,3.9601 -13.7221,8.4266 -15.8138,6.0906 -0.8518,0.3599 -1.5466,0.8986 -2.0161,1.695 z"
           style="fill:#d9ac93;fill-rule:evenodd"
           id="path2337" />
        <path
           d="m 143.9473,229.2274 c -0.9015,1.8352 11.4226,-0.9052 14.1115,-5.3233 -4.0882,0.27 -6.0238,-0.6366 -7.0883,-1.777 -0.9806,2.894 -4.0484,4.6772 -7.0232,7.1003 z"
           style="fill:#e7c3b0;fill-rule:evenodd"
           id="path2339" />
      </g>
      <g
         id="Layer1017"
         transform="matrix(7.6632615,2.6800004,-2.6800004,7.6632615,247.00347,-1082.9966)">
        <path
           d="m 113.1177,232.0444 c -0.281,3.0515 -0.1037,6.1237 0.3985,9.2112 0.9869,-1.2226 1.4777,-3.9355 1.9771,-6.6208 m 14.3,25.209 c 0.3428,-0.3763 0.4459,-1.3522 0.4329,-2.6187 1.1001,4.3489 2.6974,8.4753 4.8298,12.3624 0.446,-3.9027 0.021,-6.687 -0.3049,-9.5982 1.1043,3.551 3.0981,7.0177 5.6978,10.4269 M 124.166,250.6095 c 1.8713,6.3475 3.7866,8.2213 5.9924,11.4879 -0.4355,-2.6877 -0.871,-5.3754 -1.3065,-8.0631 m -13.7464,-17.3696 c 2.1785,6.6523 5.3154,12.3399 8.8472,17.355 0.2963,-2.0204 0.2644,-5.0748 0.0283,-7.796"
           style="fill:none;stroke:#1b1918;stroke-width:0.5669;stroke-linecap:butt;stroke-linejoin:miter;stroke-dasharray:none"
           id="path2342" />
        <path
           d="m 183.4823,210.718 c 1.3917,2.8368 3.5011,5.5298 6.6728,8.0109 -1.7711,0.3823 -3.542,0.7647 -5.3131,1.1469 3.5277,1.9394 6.3151,5.6947 7.0986,14.3655 -1.343,-3.1309 -2.8557,-5.2892 -4.4839,-6.7825 3.6612,6.5062 3.8065,11.8032 2.9066,16.7405 -1.0675,-1.958 -2.1351,-3.9162 -3.2025,-5.8743 0.2477,4.2546 0.7877,8.2167 2.6408,10.867 -1.9987,-0.2008 -3.7946,-2.4966 -5.472,-6.0084 1.797,2.6809 1.6909,7.9605 0.9577,14.097 -1.3167,-1.8159 -2.6335,-3.6316 -3.9502,-5.4474 m 1.9751,2.7236 c -1.1942,2.3141 -1.8603,5.0808 -2.0575,8.2495"
           style="fill:none;stroke:#1b1918;stroke-width:0.5669;stroke-linecap:butt;stroke-linejoin:miter;stroke-dasharray:none"
           id="path2344" />
      </g>
      <path
         d="m 717.59638,1236.4268 c 6.03075,27.7893 12.05997,55.5781 18.09149,83.3677 9.84189,-16.5345 19.68609,-33.0682 29.52875,-49.6024"
         style="fill:none;stroke:#1b1918;stroke-width:4.60231;stroke-linecap:butt;stroke-linejoin:miter;stroke-dasharray:none"
         id="path2347" />
      <path
         d="m 748.25693,1298.6811 c 5.68767,10.2989 9.89655,38.1899 13.36238,74.9685 9.50648,-32.168 28.08299,-44.6175 31.88171,-69.4457 7.41047,14.6736 11.78248,31.3094 13.65673,49.5589 17.71245,-24.2695 31.24199,-56.1219 41.83397,-93.2899 4.79984,15.983 5.45454,35.0883 6.04715,54.2434"
         style="fill:none;stroke:#1b1918;stroke-width:4.60231;stroke-linecap:butt;stroke-linejoin:miter;stroke-dasharray:none"
         id="path2349" />
      <path
         d="m 855.01102,1313.8147 c 14.92366,-16.1919 24.40301,-59.9293 36.91045,-82.1798"
         style="fill:none;stroke:#1b1918;stroke-width:4.60231;stroke-linecap:butt;stroke-linejoin:miter;stroke-dasharray:none"
         id="path2351" />
      <path
         d="m 917.76877,1199.1157 c -6.20203,37.7279 -14.57708,56.0638 -26.72369,63.5426 -0.77886,-17.0485 -0.11052,-33.6511 4.69064,-57.015"
         style="fill:none;stroke:#1b1918;stroke-width:4.60231;stroke-linecap:butt;stroke-linejoin:miter;stroke-dasharray:none"
         id="path2353" />
      <path
         d="m 683.79224,1214.1405 c 5.40874,20.4171 10.81622,40.8328 16.2247,61.2506 9.21581,-20.4276 18.43162,-40.8552 27.64667,-61.283"
         style="fill:none;stroke:#1b1918;stroke-width:4.60231;stroke-linecap:butt;stroke-linejoin:miter;stroke-dasharray:none"
         id="path2355" />
      <g
         id="Layer1018"
         transform="matrix(7.6632615,2.6800004,-2.6800004,7.6632615,247.00347,-1082.9966)">
        <path
           d="m 134.2791,238.574 c 2.3285,-2.311 6.6287,-9.2828 15.008,-15.7221 1.3333,-0.7814 1.029,-2.1929 0.0477,-3.8647 -1.3971,1.0933 -3.7149,-0.2988 -6.287,-2.3776 -5.9257,-1.8584 -14.6385,5.7965 -15.8186,14.7571 1.2061,-0.8763 2.4121,-1.7528 3.6182,-2.6291 -2.9882,2.5539 -3.037,5.8824 -2.6318,9.3306 1.2952,-1.4103 2.5903,-2.8206 3.8855,-4.2309 -0.5631,3.1395 -1.6724,5.7329 -3.1254,7.9823 1.9872,-1.094 4.1456,-3.3812 6.3824,-6.2195 -0.6206,1.2023 -1.2131,2.3822 -1.079,2.9739 z"
           style="fill:#dbdbdb;fill-rule:evenodd"
           id="path2361" />
        <path
           d="m 150.7401,218.9969 c 2.7854,-6.1479 12.6681,-12.8421 23.5358,-3.8796 -1.3604,-0.1222 -2.7035,-0.1902 -3.8313,0.3864 3.75,0.8089 5.7849,2.2589 6.6337,4.1529 -1.6848,-0.0265 -3.2908,0.0164 -4.045,0.8135 2.1403,0.1017 4.3095,3.4535 6.1668,3.1518 -2.1938,0.4043 -4.7413,0.0813 -7.262,-0.4288 0.8675,1.0014 2.0687,1.8693 2.6024,3.0042 -5.5502,-3.5499 -11.7422,-3.9496 -14.3899,-3.2604 -5.4247,0.9734 -8.9707,0.0691 -9.4105,-3.94 z"
           style="fill:#dbdbdb;fill-rule:evenodd"
           id="path2363" />
        <path
           d="m 135.5253,233.0303 c 2.0357,-3.6279 4.8281,-6.6672 8.4656,-9.0491"
           style="fill:none;stroke:#1b1918;stroke-width:0.5669;stroke-linecap:butt;stroke-linejoin:miter;stroke-dasharray:none"
           id="path2365" />
        <path
           d="m 157.4213,219.4187 c 3.1546,0.1365 6.3011,0.6441 9.4377,1.6174"
           style="fill:none;stroke:#1b1918;stroke-width:0.5669;stroke-linecap:butt;stroke-linejoin:miter;stroke-dasharray:none"
           id="path2367" />
      </g>
      <path
         d="m 1159.1544,449.7711 c 1.3632,-11.0273 -1.122,-19.8227 -4.3794,-28.1708 3.974,-4.0741 6.5988,-7.7652 5.9832,-10.5374 0.2009,-36.5559 -55.3798,-170.942 -60.4523,-221.6297 C 1058.6279,56.4956 856.42505,-50.2224 565.65123,49.1706 461.94428,140.3678 395.28968,291.0775 288.75311,414.5303 c 5.56723,4.6329 10.79728,9.9693 13.04673,21.443 21.02436,11.4146 27.28975,28.1501 23.95756,48.3416 24.82047,25.9345 22.46313,52.3394 18.70665,78.7683 57.69046,-48.2725 111.31215,-99.344 167.33842,-120.2081 24.66796,5.5702 58.3386,-1.9368 103.55799,-26.2208 18.24869,1.8219 36.44232,3.4595 51.17077,-6.7786 160.38827,-36.8417 133.96965,-4.9317 189.90244,-1.2852 75.58013,-11.1936 65.22129,0.3266 114.3194,10.6151 27.60745,-14.7525 57.78713,-11.739 90.36783,7.8583 31.7676,-4.4339 64.3562,1.9764 98.0335,22.7072 z"
         style="fill:#7d231e;fill-rule:evenodd;stroke:#1b1918;stroke-width:4.60231;stroke-linecap:butt;stroke-linejoin:miter;stroke-dasharray:none"
         id="path2370" />
      <path
         d="m 476.5517,459.8336 c 20.15942,-58.8813 53.39316,-117.5654 93.65685,-176.1484"
         style="fill:none;stroke:#212121;stroke-width:4.60231;stroke-linecap:butt;stroke-linejoin:miter;stroke-dasharray:none"
         id="path2372" />
      <path
         d="m 1137.4809,438.3066 c -7.4187,-74.2032 -47.8185,-139.5144 -106.6323,-199.8593"
         style="fill:#212121;fill-rule:evenodd;stroke:#212121;stroke-width:4.60231;stroke-linecap:butt;stroke-linejoin:miter;stroke-dasharray:none"
         id="path2374" />
      <path
         d="m 317.30509,487.7964 c 32.45409,18.5279 24.67503,54.563 20.66094,85.8256 6.50198,33.3992 -15.35116,64.03929 -46.98036,93.55513 -11.37151,19.60489 -27.98044,29.96709 -54.49521,22.83844 -17.64689,19.34796 -33.20299,27.1989 -45.87159,19.19664 -6.9384,6.16885 -14.25762,5.62341 -21.9211,-1.01291 -15.88061,5.25965 -26.56211,-1.20913 -32.98917,-17.28557 -14.78548,1.51095 -25.72073,-4.97003 -31.54798,-22.06314 C 92.79617,666.03642 84.50652,660.23641 77.31397,653.37002 66.52951,653.02406 60.2288,645.53556 57.40212,632.50801 44.61315,625.1672 39.23045,616.8834 39.26082,607.9039 c -5.85429,0.1965 -5.52586,-8.3614 -5.23327,-16.8734 -51.70396,-0.5575 -15.01565,-52.8886 1.73646,-93.5451 4.45386,-27.341 16.73779,-45.5758 35.11842,-56.7151 0.95941,-8.5669 5.96076,-15.1482 15.54237,-19.4759 3.4503,-13.422 10.12007,-23.0501 22.99989,-25.3634 18.34563,-10.7835 41.05157,-7.475 65.93707,2.8664 23.27734,-13.4597 46.11936,-12.7585 68.5119,2.5619 15.38225,-3.178 29.23873,-3.5647 35.67518,9.615 12.16117,7.9211 18.25288,17.2639 17.57328,28.1957 19.39424,8.0563 30.26438,33.4236 20.18297,48.6264 z"
         style="fill:#f7f7f7;fill-rule:evenodd;stroke-width:8.11837"
         id="path2376" />
      <g
         id="Layer1019"
         transform="matrix(7.6632615,2.6800004,-2.6800004,7.6632615,247.00347,-1082.9966)">
        <path
           d="m 42.8503,193.31 c 0.3471,-2.3334 0.7952,-4.6923 1.9105,-7.2217 1.3278,-0.4908 2.3447,-2.0634 3.2981,-3.8572 1.0499,-1.7478 2.5525,-2.6694 3.9388,-3.8037 m -8.6505,12.0807 c 0.1573,-3.7095 1.8882,-6.0137 3.6972,-8.6509 m 1.7467,-0.6467 c 1.9981,-0.6405 3.9632,-1.7103 5.1957,-2.6892"
           style="fill:none;stroke:#212121;stroke-width:0.5669;stroke-linecap:butt;stroke-linejoin:miter;stroke-dasharray:none"
           id="path2378" />
        <path
           d="m 58.0958,207.42 c 1.4026,-0.7621 2.7628,-0.8494 4.0045,0.9354 2.1874,0.6825 4.0025,-0.801 5.6209,-3.4295 m 5.8877,-5.1552 c 0.8087,-0.099 1.8713,-1.7047 2.7514,-4.4412 m -3.7609,6.269 c 1.2096,-1.2033 0.8889,-2.9769 2.4789,-3.9731 m -8.4165,8.8104 c 2.9682,-2.0209 6.4528,-2.6778 5.9731,-6.2612"
           style="fill:none;stroke:#1b1918;stroke-width:0.5669;stroke-linecap:butt;stroke-linejoin:miter;stroke-dasharray:none"
           id="path2380" />
      </g>
    </g>
  </g>
</svg>
